<svg id="visual" viewBox="0 0 900 600" width="900" height="600" xmlns="http://www.w3.org/2000/svg" xmlns:xlink="http://www.w3.org/1999/xlink" version="1.1"><path d="M0 103L21.5 100C43 97 86 91 128.8 90C171.7 89 214.3 93 257.2 108C300 123 343 149 385.8 149C428.7 149 471.3 123 514.2 112C557 101 600 105 642.8 110C685.7 115 728.3 121 771.2 138C814 155 857 183 878.5 197L900 211L900 0L878.5 0C857 0 814 0 771.2 0C728.3 0 685.7 0 642.8 0C600 0 557 0 514.2 0C471.3 0 428.7 0 385.8 0C343 0 300 0 257.2 0C214.3 0 171.7 0 128.8 0C86 0 43 0 21.5 0L0 0Z" fill="#6198ff"></path><path d="M0 169L21.5 175C43 181 86 193 128.8 191C171.7 189 214.3 173 257.2 189C300 205 343 253 385.8 258C428.7 263 471.3 225 514.2 214C557 203 600 219 642.8 224C685.7 229 728.3 223 771.2 236C814 249 857 281 878.5 297L900 313L900 209L878.5 195C857 181 814 153 771.2 136C728.3 119 685.7 113 642.8 108C600 103 557 99 514.2 110C471.3 121 428.7 147 385.8 147C343 147 300 121 257.2 106C214.3 91 171.7 87 128.8 88C86 89 43 95 21.5 98L0 101Z" fill="#4385ff"></path><path d="M0 247L21.5 247C43 247 86 247 128.8 237C171.7 227 214.3 207 257.2 221C300 235 343 283 385.8 293C428.7 303 471.3 275 514.2 272C557 269 600 291 642.8 293C685.7 295 728.3 277 771.2 293C814 309 857 359 878.5 384L900 409L900 311L878.5 295C857 279 814 247 771.2 234C728.3 221 685.7 227 642.8 222C600 217 557 201 514.2 212C471.3 223 428.7 261 385.8 256C343 251 300 203 257.2 187C214.3 171 171.7 187 128.8 189C86 191 43 179 21.5 173L0 167Z" fill="#2071ff"></path><path d="M0 313L21.5 308C43 303 86 293 128.8 284C171.7 275 214.3 267 257.2 284C300 301 343 343 385.8 349C428.7 355 471.3 325 514.2 318C557 311 600 327 642.8 334C685.7 341 728.3 339 771.2 357C814 375 857 413 878.5 432L900 451L900 407L878.5 382C857 357 814 307 771.2 291C728.3 275 685.7 293 642.8 291C600 289 557 267 514.2 270C471.3 273 428.7 301 385.8 291C343 281 300 233 257.2 219C214.3 205 171.7 225 128.8 235C86 245 43 245 21.5 245L0 245Z" fill="#0061f1"></path><path d="M0 421L21.5 412C43 403 86 385 128.8 368C171.7 351 214.3 335 257.2 357C300 379 343 439 385.8 445C428.7 451 471.3 403 514.2 395C557 387 600 419 642.8 435C685.7 451 728.3 451 771.2 463C814 475 857 499 878.5 511L900 523L900 449L878.5 430C857 411 814 373 771.2 355C728.3 337 685.7 339 642.8 332C600 325 557 309 514.2 316C471.3 323 428.7 353 385.8 347C343 341 300 299 257.2 282C214.3 265 171.7 273 128.8 282C86 291 43 301 21.5 306L0 311Z" fill="#0056d6"></path><path d="M0 601L21.5 601C43 601 86 601 128.8 601C171.7 601 214.3 601 257.2 601C300 601 343 601 385.8 601C428.7 601 471.3 601 514.2 601C557 601 600 601 642.8 601C685.7 601 728.3 601 771.2 601C814 601 857 601 878.5 601L900 601L900 521L878.5 509C857 497 814 473 771.2 461C728.3 449 685.7 449 642.8 433C600 417 557 385 514.2 393C471.3 401 428.7 449 385.8 443C343 437 300 377 257.2 355C214.3 333 171.7 349 128.8 366C86 383 43 401 21.5 410L0 419Z" fill="#004cbb"></path></svg>