<?xml version="1.0" encoding="UTF-8" standalone="no"?>
<svg
   id="visual"
   viewBox="0 0 900 600"
   width="900"
   height="600"
   version="1.1"
   sodipodi:docname="wave-haikei.svg"
   inkscape:version="1.2.2 (732a01da63, 2022-12-09)"
   xmlns:inkscape="http://www.inkscape.org/namespaces/inkscape"
   xmlns:sodipodi="http://sodipodi.sourceforge.net/DTD/sodipodi-0.dtd"
   xmlns="http://www.w3.org/2000/svg"
   xmlns:svg="http://www.w3.org/2000/svg">
  <defs
     id="defs9" />
  <sodipodi:namedview
     id="namedview7"
     pagecolor="#ffffff"
     bordercolor="#000000"
     borderopacity="0.25"
     inkscape:showpageshadow="2"
     inkscape:pageopacity="0.0"
     inkscape:pagecheckerboard="0"
     inkscape:deskcolor="#d1d1d1"
     showgrid="false"
     inkscape:zoom="1.4555556"
     inkscape:cx="424.58015"
     inkscape:cy="253.16794"
     inkscape:window-width="2560"
     inkscape:window-height="1361"
     inkscape:window-x="-9"
     inkscape:window-y="-9"
     inkscape:window-maximized="1"
     inkscape:current-layer="visual" />
  <path
     id="rect2"
     style="fill:#06acff;fill-opacity:1"
     d="M 0 189 L 0 600 L 900 600 L 900 284 L 886.30078 286.30078 C 872.70079 288.70078 845.29997 293.29924 818 310.69922 C 790.70003 327.9992 763.29919 357.99923 736.19922 364.69922 C 708.99925 371.29921 682.00075 354.69919 654.80078 326.19922 C 627.70081 297.69925 600.29997 257.29922 573 254.69922 C 545.70003 251.99922 518.29997 287.0008 491 308.80078 C 463.70003 330.70076 436.29997 339.29923 409 345.69922 C 381.70003 351.99921 354.29997 355.99998 327 335 C 299.70003 314.00002 272.29919 268 245.19922 264.5 C 217.99925 261 191.00075 300.00002 163.80078 316 C 136.70081 331.99998 109.29997 324.99998 82 300 C 54.700027 275.00002 27.299205 231.99998 13.699219 210.5 L 0 189 z " />
</svg>
